<svg width="24" height="24" viewBox="0 0 24 24" fill="none" xmlns="http://www.w3.org/2000/svg">
<circle cx="12" cy="12" r="9" stroke="#999999" stroke-width="2"/>
<path d="M12.4658 14.252H11.0578C11.0471 14.124 11.0418 13.9373 11.0418 13.692C11.0418 12.6253 11.4845 11.7933 12.3698 11.196L13.0738 10.716C13.6391 10.332 13.9218 9.80933 13.9218 9.148C13.9218 8.636 13.7565 8.204 13.4258 7.852C13.0951 7.5 12.6258 7.324 12.0178 7.324C11.3671 7.324 10.8711 7.52667 10.5298 7.932C10.1885 8.33733 10.0178 8.81733 10.0178 9.372C10.0178 9.692 10.0551 9.95333 10.1298 10.156L8.57779 9.964C8.51379 9.74 8.48179 9.484 8.48179 9.196C8.48179 8.67333 8.59913 8.172 8.83379 7.692C9.06846 7.212 9.46313 6.796 10.0178 6.444C10.5725 6.092 11.2391 5.916 12.0178 5.916C13.0845 5.916 13.9325 6.236 14.5618 6.876C15.2018 7.516 15.5218 8.268 15.5218 9.132C15.5218 10.252 14.9778 11.18 13.8898 11.916L13.1538 12.412C12.6845 12.732 12.4498 13.244 12.4498 13.948C12.4498 14.044 12.4551 14.1453 12.4658 14.252ZM11.0098 17.276C10.8071 17.0733 10.7058 16.828 10.7058 16.54C10.7058 16.252 10.8071 16.0067 11.0098 15.804C11.2125 15.5907 11.4578 15.484 11.7458 15.484C12.0338 15.484 12.2791 15.5907 12.4818 15.804C12.6951 16.0067 12.8018 16.252 12.8018 16.54C12.8018 16.828 12.6951 17.0733 12.4818 17.276C12.2791 17.4787 12.0338 17.58 11.7458 17.58C11.4578 17.58 11.2125 17.4787 11.0098 17.276Z" fill="#999999"/>
</svg>
