<svg width="20" height="20" viewBox="0 0 20 20" fill="none" xmlns="http://www.w3.org/2000/svg">
<path d="M10 6.36364C7.99091 6.36364 6.36364 7.99091 6.36364 10C6.36364 12.0091 7.99091 13.6364 10 13.6364C12.0091 13.6364 13.6364 12.0091 13.6364 10C13.6364 7.99091 12.0091 6.36364 10 6.36364ZM18.1273 9.09091C17.9214 7.24738 17.0947 5.52867 15.783 4.21699C14.4713 2.90532 12.7526 2.07865 10.9091 1.87273V0H9.09091V1.87273C7.24738 2.07865 5.52867 2.90532 4.21699 4.21699C2.90532 5.52867 2.07865 7.24738 1.87273 9.09091H0V10.9091H1.87273C2.07865 12.7526 2.90532 14.4713 4.21699 15.783C5.52867 17.0947 7.24738 17.9214 9.09091 18.1273V20H10.9091V18.1273C12.7526 17.9214 14.4713 17.0947 15.783 15.783C17.0947 14.4713 17.9214 12.7526 18.1273 10.9091H20V9.09091H18.1273ZM10 16.3636C6.48182 16.3636 3.63636 13.5182 3.63636 10C3.63636 6.48182 6.48182 3.63636 10 3.63636C13.5182 3.63636 16.3636 6.48182 16.3636 10C16.3636 13.5182 13.5182 16.3636 10 16.3636Z" fill="black"/>
</svg>
