<svg width="172" height="166" viewBox="0 0 172 166" fill="none" xmlns="http://www.w3.org/2000/svg">
<path d="M133.121 117.481L167.611 82.9905C172.835 77.7665 172.835 69.2665 167.611 64.0426C165.769 62.2005 163.519 61.0111 161.149 60.4683C161.962 58.7216 162.392 56.8045 162.392 54.8206C162.392 51.2418 160.998 47.8773 158.468 45.3471C156.484 43.3621 153.985 42.0803 151.273 41.6185C152.8 36.9669 151.721 31.6395 148.028 27.9476C145.998 25.9178 143.473 24.6808 140.838 24.2287C141.28 22.8889 141.513 21.4741 141.513 20.0224C141.513 16.4435 140.119 13.079 137.589 10.5488C135.058 8.01857 131.694 6.62477 128.115 6.62477C125.843 6.62477 123.657 7.18855 121.716 8.24714L121.373 7.87851C116.915 3.08751 110.604 0.340088 104.06 0.340088H76.1419C74.1787 0.340088 72.5865 1.93223 72.5865 3.89549V8.55782C72.5865 10.4237 72.9022 12.2401 73.5058 13.9481C71.8976 13.2802 70.1576 12.9294 68.3639 12.9294C64.7851 12.9294 61.4206 14.3232 58.89 16.8534C55.1959 20.5474 54.1178 25.8787 55.6481 30.5318C53.0109 30.9829 50.4824 32.2207 48.4506 34.2522C45.9203 36.7827 44.5266 40.1473 44.5266 43.7258C44.5266 45.1747 44.7587 46.5873 45.1984 47.9242C42.4897 48.3874 39.9936 49.6685 38.0108 51.6516C33.9311 55.7314 33.0378 61.8099 35.3309 66.7648C32.9027 67.3196 30.6725 68.5424 28.8674 70.3472C23.6438 75.5708 23.6438 84.0708 28.8674 89.2947L35.9605 96.3874L1.04135 131.306C-0.347115 132.694 -0.347115 134.945 1.04135 136.334C1.73558 137.028 2.64558 137.376 3.55522 137.376C4.46487 137.376 5.37487 137.028 6.0691 136.334L41.3252 101.078C43.3212 102.217 45.5862 102.826 47.9469 102.826C51.5254 102.826 54.8899 101.433 57.4205 98.902C60.1697 96.1531 61.47 92.4964 61.3253 88.8877C61.5055 88.8952 61.6857 88.9005 61.866 88.9005C65.2962 88.9001 68.7283 87.5942 71.3396 84.9829C73.8698 82.4523 75.2636 79.0878 75.2636 75.5093C75.2636 75.3284 75.2575 75.1485 75.2504 74.9686C75.4285 74.9757 75.6066 74.9814 75.785 74.9814C79.2157 74.9814 82.647 73.6754 85.2587 71.0638C87.7889 68.5332 89.1827 65.1687 89.1827 61.5902C89.1827 61.4093 89.1766 61.2294 89.1695 61.0495C89.3476 61.0566 89.5257 61.0623 89.7041 61.0623C93.1351 61.0623 96.5661 59.7563 99.1777 57.1447C104.086 52.2364 104.381 44.4363 100.066 39.1786L123.667 15.5776C124.855 14.3896 126.433 13.7359 128.113 13.7359C129.792 13.7359 131.371 14.3896 132.559 15.5776C133.746 16.7652 134.4 18.3435 134.4 20.0231C134.4 21.7023 133.746 23.2813 132.558 24.4686L129.079 27.9483L116.453 40.5738C115.065 41.9623 115.065 44.2135 116.453 45.6023C117.147 46.2962 118.057 46.6438 118.967 46.6438C119.877 46.6438 120.787 46.2965 121.481 45.6023L134.106 32.9767C136.557 30.5254 140.546 30.5251 142.998 32.9764C145.449 35.4281 145.449 39.4164 142.998 41.8681L139.518 45.3481L130.372 54.4936C128.984 55.8821 128.984 58.1333 130.372 59.5221C131.066 60.216 131.976 60.5636 132.886 60.5636C133.796 60.5636 134.706 60.2163 135.4 59.5221L144.546 50.3766C145.733 49.1886 147.312 48.5349 148.991 48.5349C150.671 48.5349 152.249 49.1886 153.437 50.3766C154.624 51.5642 155.278 53.1425 155.278 54.8221C155.278 56.5013 154.624 58.0803 153.436 59.2676L148.66 64.044L144.291 68.4131C142.903 69.8015 142.903 72.0527 144.291 73.4415C144.985 74.1354 145.895 74.483 146.805 74.483C147.715 74.483 148.624 74.1358 149.319 73.4415L153.691 69.0693C156.143 66.6219 160.129 66.6222 162.579 69.0725C165.031 71.5238 165.031 75.5125 162.579 77.9641L128.089 112.454C119.428 121.115 107.918 126.129 95.6778 126.573C94.7781 126.606 93.9236 126.979 93.288 127.617L61.4266 159.597C60.0406 160.988 60.0445 163.239 61.4358 164.625C62.1294 165.316 63.0372 165.662 63.9451 165.662C64.8569 165.662 65.7694 165.313 66.4636 164.616L89.8986 141.094C95.8513 144.913 102.852 146.729 109.97 146.258L128.312 164.6C129.006 165.294 129.916 165.642 130.825 165.642C131.735 165.642 132.645 165.294 133.339 164.6C134.728 163.212 134.728 160.96 133.339 159.572L113.838 140.068C113.1 139.331 112.074 138.953 111.034 139.039L109.906 139.131C104.703 139.558 99.5606 138.418 95.0703 135.902L97.3552 133.609C110.869 132.775 123.521 127.081 133.121 117.481ZM52.3927 93.8742C51.2051 95.0622 49.6261 95.7159 47.9472 95.7159C46.2676 95.7159 44.689 95.0622 43.5017 93.8742L33.8948 84.2677C31.4435 81.8164 31.4435 77.8277 33.8948 75.376C35.0825 74.188 36.6614 73.5343 38.3407 73.5343C40.0199 73.5343 41.5989 74.188 42.7862 75.376L52.3931 84.9825C54.844 87.4338 54.844 91.4226 52.3927 93.8742ZM66.3125 79.9544C63.8609 82.4057 59.8714 82.4057 57.4208 79.9544L47.8139 70.3475L43.0371 65.5707C40.5858 63.1194 40.5858 59.1307 43.0371 56.6794C44.2248 55.4914 45.8037 54.8377 47.4826 54.8377C49.1622 54.8377 50.7409 55.4914 51.9281 56.6794L66.3115 71.0627C66.3115 71.0627 66.3115 71.0627 66.3118 71.0627C67.4998 72.2507 68.1535 73.8293 68.1535 75.5086C68.1535 77.1878 67.4998 78.7668 66.3125 79.9544ZM80.2316 66.035C77.7799 68.4859 73.7909 68.4863 71.3399 66.035L53.4765 48.1716C52.2889 46.984 51.6352 45.4057 51.6352 43.7261C51.6352 42.0469 52.2889 40.4679 53.4769 39.2806C54.7026 38.055 56.3128 37.4421 57.9224 37.4421C59.5312 37.4421 61.1397 38.0543 62.365 39.2778L70.5067 47.4194L80.2309 57.1436H80.2313C81.4185 58.3313 82.0722 59.9095 82.0722 61.5891C82.0729 63.2687 81.4192 64.8477 80.2316 66.035ZM94.1511 52.1155C91.6997 54.5668 87.711 54.5668 85.2597 52.1155L67.3963 34.2522C67.3946 34.2504 67.3924 34.2486 67.3903 34.2465L63.9163 30.7725C61.465 28.3208 61.465 24.3325 63.9163 21.8808C65.142 20.6548 66.7522 20.0419 68.3622 20.0419C69.9721 20.0419 71.5823 20.6548 72.8076 21.8808L94.1503 43.2235C95.3383 44.4111 95.992 45.9897 95.992 47.669C95.9924 49.3489 95.339 50.9283 94.1511 52.1155ZM95.0859 34.1032L85.3205 24.3378C86.4278 24.5742 87.5664 24.6996 88.7252 24.6993C88.7511 24.6993 88.7774 24.6993 88.8037 24.6993L98.5606 24.6534C100.524 24.6442 102.109 23.0449 102.099 21.0813C102.09 19.1234 100.5 17.5426 98.5443 17.5426C98.5386 17.5426 98.5329 17.5426 98.5272 17.5426L88.7703 17.5885C88.7554 17.5885 88.7412 17.5885 88.7262 17.5885C86.3222 17.5885 84.0611 16.6554 82.3562 14.9587C80.6408 13.2511 79.6963 10.9782 79.6963 8.55746V7.45053H104.059C108.636 7.45053 113.049 9.37184 116.167 12.7225L116.312 12.8778L95.0859 34.1032Z" fill="#0070C9"/>
</svg>
