<svg width="36" height="36" viewBox="0 0 36 36" fill="none" xmlns="http://www.w3.org/2000/svg">
<path d="M18 3C15.0333 3 12.1332 3.87973 9.66645 5.52796C7.19972 7.17618 5.27713 9.51886 4.14181 12.2597C3.0065 15.0006 2.70945 18.0166 3.28823 20.9264C3.86701 23.8361 5.29562 26.5088 7.3934 28.6066C9.49119 30.7044 12.1639 32.133 15.0737 32.7118C17.9834 33.2906 20.9994 32.9935 23.7403 31.8582C26.4811 30.7229 28.8238 28.8003 30.472 26.3336C32.1203 23.8668 33 20.9667 33 18C33 16.0302 32.612 14.0796 31.8582 12.2597C31.1044 10.4399 29.9995 8.78628 28.6066 7.3934C27.2137 6.00052 25.5601 4.89563 23.7403 4.14181C21.9204 3.38799 19.9698 3 18 3ZM22.065 19.935C22.2056 20.0744 22.3172 20.2403 22.3933 20.4231C22.4695 20.6059 22.5087 20.802 22.5087 21C22.5087 21.198 22.4695 21.3941 22.3933 21.5769C22.3172 21.7597 22.2056 21.9256 22.065 22.065C21.9256 22.2056 21.7597 22.3172 21.5769 22.3933C21.3941 22.4695 21.198 22.5087 21 22.5087C20.802 22.5087 20.6059 22.4695 20.4231 22.3933C20.2404 22.3172 20.0744 22.2056 19.935 22.065L18 20.115L16.065 22.065C15.9256 22.2056 15.7597 22.3172 15.5769 22.3933C15.3941 22.4695 15.198 22.5087 15 22.5087C14.802 22.5087 14.6059 22.4695 14.4231 22.3933C14.2404 22.3172 14.0744 22.2056 13.935 22.065C13.7944 21.9256 13.6828 21.7597 13.6067 21.5769C13.5305 21.3941 13.4913 21.198 13.4913 21C13.4913 20.802 13.5305 20.6059 13.6067 20.4231C13.6828 20.2403 13.7944 20.0744 13.935 19.935L15.885 18L13.935 16.065C13.6525 15.7825 13.4939 15.3995 13.4939 15C13.4939 14.6005 13.6525 14.2175 13.935 13.935C14.2175 13.6525 14.6006 13.4939 15 13.4939C15.3995 13.4939 15.7826 13.6525 16.065 13.935L18 15.885L19.935 13.935C20.2175 13.6525 20.6006 13.4939 21 13.4939C21.3995 13.4939 21.7826 13.6525 22.065 13.935C22.3475 14.2175 22.5061 14.6005 22.5061 15C22.5061 15.3995 22.3475 15.7825 22.065 16.065L20.115 18L22.065 19.935Z" fill="white"/>
</svg>
