<svg width="12" height="12" viewBox="0 0 12 12" fill="none" xmlns="http://www.w3.org/2000/svg">
<g opacity="0.5">
<path fill-rule="evenodd" clip-rule="evenodd" d="M8.01189 3.89866L4.24939 5.78016L4.02539 5.33266L7.78789 3.45166L8.01189 3.89866ZM7.78789 8.54866L4.02539 6.66766L4.24989 6.22016L8.01239 8.10166L7.78839 8.54866H7.78789Z" fill="black"/>
<path fill-rule="evenodd" clip-rule="evenodd" d="M8.75 4.5C9.08152 4.5 9.39946 4.3683 9.63388 4.13388C9.8683 3.89946 10 3.58152 10 3.25C10 2.91848 9.8683 2.60054 9.63388 2.36612C9.39946 2.1317 9.08152 2 8.75 2C8.41848 2 8.10054 2.1317 7.86612 2.36612C7.6317 2.60054 7.5 2.91848 7.5 3.25C7.5 3.58152 7.6317 3.89946 7.86612 4.13388C8.10054 4.3683 8.41848 4.5 8.75 4.5ZM8.75 10C9.08152 10 9.39946 9.8683 9.63388 9.63388C9.8683 9.39946 10 9.08152 10 8.75C10 8.41848 9.8683 8.10054 9.63388 7.86612C9.39946 7.6317 9.08152 7.5 8.75 7.5C8.41848 7.5 8.10054 7.6317 7.86612 7.86612C7.6317 8.10054 7.5 8.41848 7.5 8.75C7.5 9.08152 7.6317 9.39946 7.86612 9.63388C8.10054 9.8683 8.41848 10 8.75 10ZM3.25 7.25C3.58152 7.25 3.89946 7.1183 4.13388 6.88388C4.3683 6.64946 4.5 6.33152 4.5 6C4.5 5.66848 4.3683 5.35054 4.13388 5.11612C3.89946 4.8817 3.58152 4.75 3.25 4.75C2.91848 4.75 2.60054 4.8817 2.36612 5.11612C2.1317 5.35054 2 5.66848 2 6C2 6.33152 2.1317 6.64946 2.36612 6.88388C2.60054 7.1183 2.91848 7.25 3.25 7.25Z" fill="black"/>
</g>
</svg>
