<svg width="22" height="13" viewBox="0 0 22 13" fill="none" xmlns="http://www.w3.org/2000/svg">
<path d="M8.34178 12.7819L6.41078 12.2639L7.19778 9.32486C6.01975 8.89039 4.9249 8.25723 3.96078 7.45286L1.80778 9.60686L0.392781 8.19186L2.54678 6.03886C1.33086 4.58262 0.513869 2.83563 0.175781 0.968863L2.14378 0.609863C2.90278 4.81186 6.57878 7.99986 10.9998 7.99986C15.4198 7.99986 19.0968 4.81186 19.8558 0.609863L21.8238 0.967863C21.4861 2.83488 20.6695 4.58223 19.4538 6.03886L21.6068 8.19186L20.1918 9.60686L18.0388 7.45286C17.0747 8.25723 15.9798 8.89039 14.8018 9.32486L15.5888 12.2649L13.6578 12.7819L12.8698 9.84186C11.6321 10.0539 10.3674 10.0539 9.12978 9.84186L8.34178 12.7819Z" fill="black" fill-opacity="0.6"/>
</svg>
