<svg width="25" height="24" viewBox="0 0 25 24" fill="none" xmlns="http://www.w3.org/2000/svg">
<g clip-path="url(#clip0)">
<path d="M4.5192 0C2.01576 0 0 1.95468 0 4.38226V19.6178C0 22.0453 2.01576 24 4.5192 24H13.0348V14.6175H10.4762V11.2395H13.0348V8.35351C13.0348 6.08611 14.5465 4.00426 18.0288 4.00426C19.4388 4.00426 20.4814 4.13551 20.4814 4.13551L20.3994 7.29002C20.3994 7.29002 19.3361 7.28028 18.1758 7.28028C16.92 7.28028 16.7186 7.84135 16.7186 8.77279V11.2395H20.4992L20.3345 14.6175H16.7186V24H20.2308C22.7342 24 24.75 22.0454 24.75 19.6178V4.38228C24.75 1.9547 22.7342 2.4e-05 20.2308 2.4e-05H4.51918L4.5192 0Z" fill="#4B7AA6"/>
</g>
<defs>
<clipPath id="clip0">
<rect width="24.75" height="24" fill="white"/>
</clipPath>
</defs>
</svg>
