<svg width="188" height="188" viewBox="0 0 188 188" fill="none" xmlns="http://www.w3.org/2000/svg">
<path d="M155.058 71.8007C153.623 70.3672 151.298 70.3672 149.864 71.8007C148.431 73.2349 148.431 75.56 149.864 76.9938C149.921 77.0504 149.98 77.108 150.037 77.1609C150.745 77.8244 151.647 78.1527 152.546 78.1527C153.526 78.1527 154.504 77.7623 155.227 76.9909C156.613 75.5115 156.537 73.1872 155.058 71.8007Z" fill="#0070C9"/>
<path d="M147.598 65.7699C145.496 64.3426 143.338 63.0696 141.184 61.9853C128.998 55.8537 116.086 54.6228 103.841 58.4254C101.904 59.0272 100.821 61.0846 101.423 63.0211C102.025 64.958 104.081 66.0398 106.019 65.4387C116.412 62.2107 127.43 63.2851 137.882 68.5447C139.726 69.4733 141.659 70.6153 143.473 71.8457C144.105 72.2746 144.822 72.4806 145.532 72.4806C146.707 72.4806 147.863 71.9169 148.573 70.8705C149.712 69.1928 149.275 66.9089 147.598 65.7699Z" fill="#0070C9"/>
<path d="M181.003 113.287C179.497 110.13 177.005 104.9 176.96 103.17C181.254 92.5866 179.687 80.8745 172.535 70.1611C161.537 53.6843 138.995 41.7251 118.937 41.7251C108.334 41.7251 97.9806 44.2535 88.6658 49.0802C85.9935 34.4379 73.1522 23.3008 57.7502 23.3008C40.4168 23.3008 26.3154 37.4022 26.3154 54.7352C26.3154 65.7629 31.9356 75.7897 41.348 81.5563C44.0615 83.2189 44.6755 84.6561 44.8936 87.0109V99.5477V108.497C44.8936 112.597 48.2284 115.933 52.3273 115.933H53.5757C55.5926 132.007 63.3719 146.6 75.7203 157.339C75.8367 157.702 76.1764 159.403 74.7172 164.476C73.5807 168.429 71.8366 172.819 70.2984 176.693C69.2689 179.285 68.3795 181.523 67.842 183.216C67.4876 184.332 67.6867 185.55 68.3781 186.496C69.0698 187.441 70.1707 188 71.3416 188H123.756C125.478 188 127.843 187.229 129.332 183.555C129.98 181.956 130.403 180.033 130.851 177.996C131.288 176.012 132.311 171.365 133.328 170.803C133.329 170.803 133.388 170.793 133.532 170.815C133.72 170.845 133.91 170.86 134.101 170.86C139.59 170.86 144.076 171.109 148.033 171.328C159.639 171.972 166.645 172.361 172.791 163.509C175.916 159.006 175.562 152.44 175.187 145.488C174.994 141.905 174.794 138.207 175.148 135.132C175.789 134.501 177.394 133.399 178.4 132.709C181.861 130.331 185.13 128.087 185.13 124.674C185.132 122.079 183.563 118.657 181.003 113.287ZM45.1851 75.2936C37.9681 70.8727 33.6595 63.1875 33.6595 54.7348C33.6595 41.4508 44.4669 30.6441 57.7506 30.6441C71.0347 30.6441 81.8417 41.4512 81.8417 54.7348C81.8417 63.1875 77.5335 70.873 70.3161 75.2943C66.8862 77.3965 64.8476 79.8482 63.88 83.1609L57.7495 83.1587L51.6219 83.1609C50.6536 79.8485 48.6154 77.3965 45.1851 75.2936ZM63.2639 90.5054V95.8755H52.238V90.5054H63.2639ZM52.328 108.589C52.2872 108.589 52.238 108.538 52.238 108.497V103.219H63.2639V108.497C63.2639 108.538 63.2143 108.589 63.1728 108.589H52.328ZM174.244 126.654C171.083 128.825 168.354 130.699 167.951 133.535C167.398 137.426 167.63 141.725 167.854 145.883C168.133 151.04 168.448 156.887 166.759 159.32C163.105 164.583 159.945 164.634 148.44 163.995C144.644 163.784 139.934 163.523 134.349 163.515C132.205 163.263 128.576 163.665 126.154 168.373C124.924 170.763 124.263 173.767 123.68 176.417C123.387 177.749 122.975 179.62 122.59 180.655H76.6276C76.7885 180.25 76.9544 179.831 77.1248 179.403C82.4145 166.084 85.7647 156.315 80.6652 151.907C69.8567 142.558 62.9639 129.9 60.9873 115.932H63.1732C67.2728 115.932 70.608 112.597 70.608 108.497V99.5473V87.0178C70.8257 84.6587 71.4378 83.2204 74.1535 81.5559C82.8452 76.231 88.2986 67.2728 89.0837 57.249C98.0959 51.8936 108.376 49.0684 118.937 49.0684C136.433 49.0684 156.85 59.889 166.428 74.2379C170.533 80.3876 174.498 89.9546 170.074 100.607C168.633 104.075 170.77 108.886 174.374 116.447C175.541 118.895 177.23 122.438 177.677 124.094C176.919 124.817 175.288 125.937 174.244 126.654Z" fill="#0070C9"/>
<path d="M75.762 49.5471C74.6777 45.5282 71.9822 42.3095 67.9662 40.2374C66.1641 39.3088 63.9496 40.0153 63.0195 41.8182C62.0902 43.6207 62.7974 45.8352 64.5999 46.7645C66.7924 47.8955 68.1245 49.4318 68.6716 51.4598C69.5378 54.6704 68.2277 58.1444 67.6527 59.0466C66.5625 60.7569 67.0652 63.0269 68.7752 64.117C69.3869 64.5073 70.0702 64.6928 70.7455 64.6928C71.9583 64.6928 73.145 64.0932 73.8449 62.9945C75.4113 60.5384 77.2142 54.9293 75.762 49.5471Z" fill="#0070C9"/>
<path d="M57.751 0C55.723 0 54.0791 1.64463 54.0791 3.67186V14.1396C54.0791 16.1668 55.723 17.8115 57.751 17.8115C59.7786 17.8115 61.4228 16.1668 61.4228 14.1396V3.67186C61.4228 1.64463 59.7786 0 57.751 0Z" fill="#0070C9"/>
<path d="M17.0092 51.2095H6.54149C4.51352 51.2095 2.86963 52.8541 2.86963 54.8813C2.86963 56.9093 4.51352 58.5532 6.54149 58.5532H17.0096C19.0372 58.5532 20.6811 56.9093 20.6811 54.8813C20.6811 52.8541 19.0368 51.2095 17.0092 51.2095Z" fill="#0070C9"/>
<path d="M40.5584 17.7583L35.326 8.69684C34.3118 6.94059 32.0657 6.33951 30.3099 7.35294C28.554 8.36711 27.9522 10.6125 28.9663 12.3687L34.1987 21.4301C34.8791 22.6084 36.1129 23.2668 37.3819 23.2668C38.005 23.2668 38.6365 23.1082 39.2145 22.774C40.9707 21.7599 41.5725 19.5145 40.5584 17.7583Z" fill="#0070C9"/>
<path d="M24.2995 31.3301L15.237 26.0977C13.4811 25.0842 11.235 25.686 10.2212 27.4416C9.20702 29.1978 9.80884 31.4431 11.5651 32.4573L20.6276 37.6897C21.2056 38.0239 21.8371 38.1825 22.4599 38.1825C23.7289 38.1825 24.963 37.5241 25.6434 36.3458C26.6575 34.5903 26.0557 32.3442 24.2995 31.3301Z" fill="#0070C9"/>
<path d="M105.282 27.4413C104.267 25.6851 102.022 25.0832 100.266 26.0974L91.2033 31.3298C89.447 32.344 88.8452 34.5901 89.8594 36.3456C90.5394 37.5239 91.7735 38.1822 93.0425 38.1822C93.6653 38.1822 94.2968 38.0236 94.8751 37.6895L103.938 32.4571C105.694 31.4429 106.296 29.1976 105.282 27.4413Z" fill="#0070C9"/>
<path d="M25.6452 73.4178C24.6318 71.6615 22.3868 71.0604 20.6302 72.0731L11.5655 77.3055C9.80922 78.319 9.20704 80.565 10.2208 82.3213C10.9009 83.4996 12.1353 84.158 13.4043 84.158C14.0271 84.158 14.6583 83.9993 15.2366 83.6659L24.301 78.4335C26.0572 77.4201 26.6594 75.174 25.6452 73.4178Z" fill="#0070C9"/>
<path d="M38.4593 88.2961C36.7038 87.2827 34.4577 87.8845 33.4435 89.64L28.966 97.3961C27.9522 99.1524 28.5541 101.398 30.3103 102.412C30.8886 102.746 31.5198 102.905 32.1426 102.905C33.4116 102.905 34.646 102.246 35.3261 101.068L39.8035 93.3119C40.8177 91.5557 40.2159 89.3103 38.4593 88.2961Z" fill="#0070C9"/>
<path d="M85.1926 7.35278C83.436 6.33861 81.191 6.94043 80.1768 8.69668L74.9444 17.7581C73.9303 19.5143 74.5317 21.7601 76.288 22.7739C76.8663 23.108 77.4978 23.2666 78.1206 23.2666C79.3896 23.2666 80.6237 22.6083 81.3041 21.43L86.5365 12.3685C87.5506 10.6123 86.9488 8.36695 85.1926 7.35278Z" fill="#0070C9"/>
</svg>
