<svg width="102" height="102" viewBox="0 0 102 102" fill="none" xmlns="http://www.w3.org/2000/svg">
<g opacity="0.1">
<path d="M84.9325 16.9873H16.9838C12.2996 16.9873 8.49023 20.7967 8.49023 25.4809V76.4424C8.49023 81.1266 12.2996 84.936 16.9838 84.936H84.9325C89.6168 84.936 93.4261 81.1266 93.4261 76.4424V25.4809C93.4261 20.7967 89.6168 16.9873 84.9325 16.9873ZM27.6008 29.7277C29.2903 29.7277 30.9106 30.3988 32.1052 31.5935C33.2999 32.7881 33.971 34.4084 33.971 36.0979C33.971 37.7874 33.2999 39.4076 32.1052 40.6023C30.9106 41.7969 29.2903 42.4681 27.6008 42.4681C25.9113 42.4681 24.291 41.7969 23.0964 40.6023C21.9018 39.4076 21.2306 37.7874 21.2306 36.0979C21.2306 34.4084 21.9018 32.7881 23.0964 31.5935C24.291 30.3988 25.9113 29.7277 27.6008 29.7277ZM50.9582 72.1956H21.2306L38.2178 50.9617L44.588 59.4553L57.3284 42.4681L80.6858 72.1956H50.9582Z" fill="black"/>
</g>
</svg>
