<svg width="24" height="24" viewBox="0 0 24 24" fill="none" xmlns="http://www.w3.org/2000/svg">
<path fill-rule="evenodd" clip-rule="evenodd" d="M3.95629 11.38C4.23629 9.91 5.61629 8.9 7.11629 8.9H10.0463C10.5663 8.9 10.9963 8.47 10.9963 7.95C10.9963 7.43 10.5663 7 10.0463 7H7.21629C4.60629 7 2.27629 8.91 2.02629 11.51C1.73629 14.49 4.07629 17 6.99629 17H10.0463C10.5663 17 10.9963 16.57 10.9963 16.05C10.9963 15.53 10.5663 15.1 10.0463 15.1H6.99629C5.08629 15.1 3.57629 13.36 3.95629 11.38ZM8.99629 13H14.9963C15.5463 13 15.9963 12.55 15.9963 12C15.9963 11.45 15.5463 11 14.9963 11H8.99629C8.44629 11 7.99629 11.45 7.99629 12C7.99629 12.55 8.44629 13 8.99629 13ZM13.9463 7H16.7763C19.3863 7 21.7263 8.91 21.9763 11.51C22.2563 14.49 19.9163 17 16.9963 17H13.9463C13.4263 17 12.9963 16.57 12.9963 16.05C12.9963 15.53 13.4263 15.1 13.9463 15.1H16.9963C18.9063 15.1 20.4163 13.36 20.0363 11.38C19.7563 9.91 18.3763 8.9 16.8763 8.9H13.9463C13.4263 8.9 12.9963 8.47 12.9963 7.95C12.9963 7.43 13.4263 7 13.9463 7Z" fill="black" fill-opacity="0.54"/>
</svg>
