<svg width="26" height="26" viewBox="0 0 26 26" fill="none" xmlns="http://www.w3.org/2000/svg">
<path fill-rule="evenodd" clip-rule="evenodd" d="M21.5 22.9167H4.5C3.72083 22.9167 3.08333 22.2792 3.08333 21.5V4.5C3.08333 3.72083 3.72083 3.08333 4.5 3.08333H11.5833C12.3625 3.08333 13 2.44583 13 1.66667C13 0.8875 12.3625 0.25 11.5833 0.25H3.08333C1.51083 0.25 0.25 1.525 0.25 3.08333V22.9167C0.25 24.475 1.525 25.75 3.08333 25.75H22.9167C24.475 25.75 25.75 24.475 25.75 22.9167V14.4167C25.75 13.6375 25.1125 13 24.3333 13C23.5542 13 22.9167 13.6375 22.9167 14.4167V21.5C22.9167 22.2792 22.2792 22.9167 21.5 22.9167ZM15.8333 1.66667C15.8333 2.44583 16.4708 3.08333 17.25 3.08333H20.9192L7.98499 16.0175C7.43249 16.57 7.43249 17.4625 7.98499 18.015C8.53749 18.5675 9.42999 18.5675 9.98249 18.015L22.9167 5.08083V8.75C22.9167 9.52917 23.5542 10.1667 24.3333 10.1667C25.1125 10.1667 25.75 9.52917 25.75 8.75V0.25H17.25C16.4708 0.25 15.8333 0.8875 15.8333 1.66667Z" fill="#B5B5B5"/>
</svg>