<svg width="127" height="127" viewBox="0 0 127 127" fill="none" xmlns="http://www.w3.org/2000/svg">
<g opacity="0.5">
<path d="M95.2497 15.875C99.46 15.875 103.498 17.5475 106.475 20.5247C109.452 23.5018 111.125 27.5397 111.125 31.75C111.125 35.9603 109.452 39.9982 106.475 42.9753C103.498 45.9525 99.46 47.625 95.2497 47.625H79.3747C76.0913 47.6256 72.8885 46.6082 70.2075 44.7128C67.5264 42.8174 65.499 40.1373 64.4045 37.0417H58.208C52.3872 37.0417 47.6247 41.8042 47.6247 47.625V48.5299C50.7219 49.6229 53.4038 51.6497 55.3008 54.3308C57.1979 57.012 58.2166 60.2156 58.2166 63.5C58.2166 66.7844 57.1979 69.988 55.3008 72.6691C53.4038 75.3503 50.7219 77.3771 47.6247 78.4701V79.375C47.6247 85.1958 52.3872 89.9583 58.208 89.9583H64.3993C65.496 86.8632 67.5247 84.1838 70.2064 82.2886C72.888 80.3935 76.0909 79.3756 79.3747 79.375H95.2497C99.46 79.375 103.498 81.0475 106.475 84.0247C109.452 87.0018 111.125 91.0397 111.125 95.25C111.125 99.4603 109.452 103.498 106.475 106.475C103.498 109.452 99.46 111.125 95.2497 111.125H79.3747C76.0913 111.126 72.8885 110.108 70.2075 108.213C67.5264 106.317 65.499 103.637 64.4045 100.542H58.208C46.5134 100.542 37.0413 91.0696 37.0413 79.375H26.458C22.2477 79.375 18.2098 77.7025 15.2327 74.7253C12.2555 71.7482 10.583 67.7103 10.583 63.5C10.583 59.2897 12.2555 55.2518 15.2327 52.2747C18.2098 49.2975 22.2477 47.625 26.458 47.625H37.0413C37.0413 35.9304 46.5134 26.4583 58.208 26.4583H64.3993C65.496 23.3632 67.5247 20.6838 70.2064 18.7886C72.888 16.8935 76.0909 15.8756 79.3747 15.875H95.2497ZM95.2497 89.9583H79.3747C77.9712 89.9583 76.6253 90.5158 75.6329 91.5082C74.6405 92.5006 74.083 93.8466 74.083 95.25C74.083 96.6534 74.6405 97.9994 75.6329 98.9918C76.6253 99.9842 77.9712 100.542 79.3747 100.542H95.2497C96.6531 100.542 97.9991 99.9842 98.9915 98.9918C99.9838 97.9994 100.541 96.6534 100.541 95.25C100.541 93.8466 99.9838 92.5006 98.9915 91.5082C97.9991 90.5158 96.6531 89.9583 95.2497 89.9583ZM42.333 58.2083H26.458C25.0546 58.2083 23.7086 58.7658 22.7162 59.7582C21.7239 60.7506 21.1663 62.0966 21.1663 63.5C21.1663 64.9034 21.7239 66.2494 22.7162 67.2418C23.7086 68.2341 25.0546 68.7917 26.458 68.7917H42.333C43.7364 68.7917 45.0824 68.2341 46.0748 67.2418C47.0672 66.2494 47.6247 64.9034 47.6247 63.5C47.6247 62.0966 47.0672 60.7506 46.0748 59.7582C45.0824 58.7658 43.7364 58.2083 42.333 58.2083ZM95.2497 26.4583H79.3747C77.9712 26.4583 76.6253 27.0158 75.6329 28.0082C74.6405 29.0006 74.083 30.3466 74.083 31.75C74.083 33.1534 74.6405 34.4994 75.6329 35.4918C76.6253 36.4842 77.9712 37.0417 79.3747 37.0417H95.2497C96.6531 37.0417 97.9991 36.4842 98.9915 35.4918C99.9838 34.4994 100.541 33.1534 100.541 31.75C100.541 30.3466 99.9838 29.0006 98.9915 28.0082C97.9991 27.0158 96.6531 26.4583 95.2497 26.4583Z" fill="#999999"/>
</g>
</svg>
