<svg width="94" height="94" viewBox="0 0 94 94" fill="none" xmlns="http://www.w3.org/2000/svg">
<g opacity="0.2">
<path d="M70.5002 11.75C73.6165 11.75 76.6051 12.9879 78.8087 15.1915C81.0122 17.395 82.2502 20.3837 82.2502 23.5C82.2502 26.6163 81.0122 29.605 78.8087 31.8085C76.6051 34.0121 73.6165 35.25 70.5002 35.25H58.7502C56.3199 35.2505 53.9494 34.4974 51.965 33.0945C49.9806 31.6916 48.48 29.7079 47.6699 27.4167H43.0835C38.7752 27.4167 35.2502 30.9417 35.2502 35.25V35.9197C37.5426 36.7288 39.5276 38.2289 40.9317 40.2134C42.3358 42.1979 43.0898 44.569 43.0898 47C43.0898 49.431 42.3358 51.8021 40.9317 53.7866C39.5276 55.7711 37.5426 57.2712 35.2502 58.0803V58.75C35.2502 63.0583 38.7752 66.5833 43.0835 66.5833H47.666C48.4778 64.2924 49.9793 62.3093 51.9642 60.9065C53.949 59.5038 56.3197 58.7504 58.7502 58.75H70.5002C73.6165 58.75 76.6051 59.9879 78.8087 62.1915C81.0122 64.395 82.2502 67.3837 82.2502 70.5C82.2502 73.6163 81.0122 76.605 78.8087 78.8085C76.6051 81.0121 73.6165 82.25 70.5002 82.25H58.7502C56.3199 82.2505 53.9494 81.4974 51.965 80.0945C49.9806 78.6916 48.48 76.7079 47.6699 74.4167H43.0835C34.4277 74.4167 27.4168 67.4058 27.4168 58.75H19.5835C16.4672 58.75 13.4785 57.5121 11.275 55.3085C9.07144 53.105 7.8335 50.1163 7.8335 47C7.8335 43.8837 9.07144 40.895 11.275 38.6915C13.4785 36.4879 16.4672 35.25 19.5835 35.25H27.4168C27.4168 26.5942 34.4277 19.5833 43.0835 19.5833H47.666C48.4778 17.2924 49.9793 15.3093 51.9642 13.9065C53.949 12.5038 56.3197 11.7504 58.7502 11.75H70.5002ZM70.5002 66.5833H58.7502C57.7114 66.5833 56.7152 66.996 55.9807 67.7305C55.2461 68.465 54.8335 69.4612 54.8335 70.5C54.8335 71.5388 55.2461 72.535 55.9807 73.2695C56.7152 74.004 57.7114 74.4167 58.7502 74.4167H70.5002C71.5389 74.4167 72.5351 74.004 73.2697 73.2695C74.0042 72.535 74.4168 71.5388 74.4168 70.5C74.4168 69.4612 74.0042 68.465 73.2697 67.7305C72.5351 66.996 71.5389 66.5833 70.5002 66.5833ZM31.3335 43.0833H19.5835C18.5447 43.0833 17.5485 43.496 16.814 44.2305C16.0795 44.965 15.6668 45.9612 15.6668 47C15.6668 48.0388 16.0795 49.035 16.814 49.7695C17.5485 50.504 18.5447 50.9167 19.5835 50.9167H31.3335C32.3723 50.9167 33.3685 50.504 34.103 49.7695C34.8375 49.035 35.2502 48.0388 35.2502 47C35.2502 45.9612 34.8375 44.965 34.103 44.2305C33.3685 43.496 32.3723 43.0833 31.3335 43.0833ZM70.5002 19.5833H58.7502C57.7114 19.5833 56.7152 19.996 55.9807 20.7305C55.2461 21.465 54.8335 22.4612 54.8335 23.5C54.8335 24.5388 55.2461 25.535 55.9807 26.2695C56.7152 27.004 57.7114 27.4167 58.7502 27.4167H70.5002C71.5389 27.4167 72.5351 27.004 73.2697 26.2695C74.0042 25.535 74.4168 24.5388 74.4168 23.5C74.4168 22.4612 74.0042 21.465 73.2697 20.7305C72.5351 19.996 71.5389 19.5833 70.5002 19.5833Z" fill="#0070C9"/>
</g>
</svg>
