<svg width="24" height="24" viewBox="0 0 24 24" fill="none" xmlns="http://www.w3.org/2000/svg">
<path d="M18 3C18.7956 3 19.5587 3.31607 20.1213 3.87868C20.6839 4.44129 21 5.20435 21 6C21 6.79565 20.6839 7.55871 20.1213 8.12132C19.5587 8.68393 18.7956 9 18 9H15C14.3795 9.00012 13.7743 8.80784 13.2676 8.44966C12.761 8.09147 12.3778 7.585 12.171 7H11C9.9 7 9 7.9 9 9V9.171C9.5853 9.37756 10.0921 9.76057 10.4506 10.2672C10.8091 10.7739 11.0016 11.3793 11.0016 12C11.0016 12.6207 10.8091 13.2261 10.4506 13.7328C10.0921 14.2394 9.5853 14.6224 9 14.829V15C9 16.1 9.9 17 11 17H12.17C12.3773 16.4151 12.7606 15.9087 13.2674 15.5506C13.7742 15.1925 14.3795 15.0001 15 15H18C18.7956 15 19.5587 15.3161 20.1213 15.8787C20.6839 16.4413 21 17.2044 21 18C21 18.7956 20.6839 19.5587 20.1213 20.1213C19.5587 20.6839 18.7956 21 18 21H15C14.3795 21.0001 13.7743 20.8078 13.2676 20.4497C12.761 20.0915 12.3778 19.585 12.171 19H11C8.79 19 7 17.21 7 15H5C4.20435 15 3.44129 14.6839 2.87868 14.1213C2.31607 13.5587 2 12.7956 2 12C2 11.2044 2.31607 10.4413 2.87868 9.87868C3.44129 9.31607 4.20435 9 5 9H7C7 6.79 8.79 5 11 5H12.17C12.3773 4.41509 12.7606 3.90875 13.2674 3.55061C13.7742 3.19247 14.3795 3.00011 15 3H18ZM18 17H15C14.7348 17 14.4804 17.1054 14.2929 17.2929C14.1054 17.4804 14 17.7348 14 18C14 18.2652 14.1054 18.5196 14.2929 18.7071C14.4804 18.8946 14.7348 19 15 19H18C18.2652 19 18.5196 18.8946 18.7071 18.7071C18.8946 18.5196 19 18.2652 19 18C19 17.7348 18.8946 17.4804 18.7071 17.2929C18.5196 17.1054 18.2652 17 18 17ZM8 11H5C4.73478 11 4.48043 11.1054 4.29289 11.2929C4.10536 11.4804 4 11.7348 4 12C4 12.2652 4.10536 12.5196 4.29289 12.7071C4.48043 12.8946 4.73478 13 5 13H8C8.26522 13 8.51957 12.8946 8.70711 12.7071C8.89464 12.5196 9 12.2652 9 12C9 11.7348 8.89464 11.4804 8.70711 11.2929C8.51957 11.1054 8.26522 11 8 11ZM18 5H15C14.7348 5 14.4804 5.10536 14.2929 5.29289C14.1054 5.48043 14 5.73478 14 6C14 6.26522 14.1054 6.51957 14.2929 6.70711C14.4804 6.89464 14.7348 7 15 7H18C18.2652 7 18.5196 6.89464 18.7071 6.70711C18.8946 6.51957 19 6.26522 19 6C19 5.73478 18.8946 5.48043 18.7071 5.29289C18.5196 5.10536 18.2652 5 18 5Z" fill="#999999"/>
</svg>
