<svg width="22" height="22" viewBox="0 0 22 22" fill="none" xmlns="http://www.w3.org/2000/svg">
<path d="M15.7663 2.75C16.4956 2.75 17.1951 3.03973 17.7108 3.55546C18.2265 4.07118 18.5163 4.77065 18.5163 5.5C18.5163 6.22935 18.2265 6.92882 17.7108 7.44454C17.1951 7.96027 16.4956 8.25 15.7663 8.25L13.0163 8.25C12.4475 8.25011 11.8927 8.07386 11.4283 7.74552C10.9638 7.41718 10.6126 6.95291 10.423 6.41667L9.34961 6.41667C8.34127 6.41667 7.51627 7.24167 7.51627 8.25L7.51627 8.40675C8.0528 8.59609 8.51739 8.94719 8.846 9.41164C9.17462 9.8761 9.3511 10.431 9.3511 11C9.3511 11.569 9.17462 12.1239 8.846 12.5884C8.51739 13.0528 8.0528 13.4039 7.51627 13.5933L7.51627 13.75C7.51627 14.7583 8.34127 15.5833 9.34961 15.5833L10.4221 15.5833C10.6121 15.0472 10.9635 14.583 11.4281 14.2547C11.8926 13.9264 12.4474 13.7501 13.0163 13.75L15.7663 13.75C16.4956 13.75 17.1951 14.0397 17.7108 14.5555C18.2265 15.0712 18.5163 15.7707 18.5163 16.5C18.5163 17.2293 18.2265 17.9288 17.7108 18.4445C17.1951 18.9603 16.4956 19.25 15.7663 19.25L13.0163 19.25C12.4475 19.2501 11.8927 19.0739 11.4283 18.7455C10.9638 18.4172 10.6126 17.9529 10.423 17.4167L9.34961 17.4167C7.32377 17.4167 5.68294 15.7758 5.68294 13.75L3.84961 13.75C3.12026 13.75 2.42079 13.4603 1.90507 12.9445C1.38934 12.4288 1.09961 11.7293 1.09961 11C1.09961 10.2707 1.38934 9.57118 1.90507 9.05546C2.42079 8.53973 3.12026 8.25 3.84961 8.25L5.68294 8.25C5.68294 6.22417 7.32377 4.58333 9.34961 4.58333L10.4221 4.58333C10.6121 4.04716 10.9635 3.58302 11.4281 3.25472C11.8926 2.92643 12.4474 2.7501 13.0163 2.75L15.7663 2.75ZM15.7663 15.5833L13.0163 15.5833C12.7732 15.5833 12.54 15.6799 12.3681 15.8518C12.1962 16.0237 12.0996 16.2569 12.0996 16.5C12.0996 16.7431 12.1962 16.9763 12.3681 17.1482C12.54 17.3201 12.7732 17.4167 13.0163 17.4167L15.7663 17.4167C16.0094 17.4167 16.2425 17.3201 16.4145 17.1482C16.5864 16.9763 16.6829 16.7431 16.6829 16.5C16.6829 16.2569 16.5864 16.0237 16.4145 15.8518C16.2425 15.6799 16.0094 15.5833 15.7663 15.5833ZM6.59961 10.0833L3.84961 10.0833C3.60649 10.0833 3.37334 10.1799 3.20143 10.3518C3.02952 10.5237 2.93294 10.7569 2.93294 11C2.93294 11.2431 3.02952 11.4763 3.20143 11.6482C3.37334 11.8201 3.60649 11.9167 3.84961 11.9167L6.59961 11.9167C6.84272 11.9167 7.07588 11.8201 7.24779 11.6482C7.4197 11.4763 7.51627 11.2431 7.51627 11C7.51627 10.7569 7.4197 10.5237 7.24779 10.3518C7.07588 10.1799 6.84272 10.0833 6.59961 10.0833ZM15.7663 4.58333L13.0163 4.58333C12.7732 4.58333 12.54 4.67991 12.3681 4.85182C12.1962 5.02373 12.0996 5.25688 12.0996 5.5C12.0996 5.74312 12.1962 5.97627 12.3681 6.14818C12.54 6.32009 12.7732 6.41667 13.0163 6.41667L15.7663 6.41667C16.0094 6.41667 16.2425 6.32009 16.4145 6.14818C16.5864 5.97627 16.6829 5.74312 16.6829 5.5C16.6829 5.25688 16.5864 5.02373 16.4145 4.85182C16.2425 4.67991 16.0094 4.58333 15.7663 4.58333Z" fill="white"/>
</svg>
