<svg width="22" height="24" viewBox="0 0 22 24" fill="none" xmlns="http://www.w3.org/2000/svg">
<path d="M11 23.6668C11.7225 23.6677 12.4274 23.4435 13.0166 23.0254C13.6058 22.6072 14.0501 22.0158 14.2877 21.3335H7.71233C7.94994 22.0158 8.39422 22.6072 8.98343 23.0254C9.57263 23.4435 10.2775 23.6677 11 23.6668ZM19.1667 15.0172V9.66683C19.1667 5.91366 16.6175 2.752 13.1642 1.80116C12.8223 0.940163 11.987 0.333496 11 0.333496C10.013 0.333496 9.17767 0.940163 8.83583 1.80116C5.3825 2.75316 2.83333 5.91366 2.83333 9.66683V15.0172L0.841834 17.0087C0.733285 17.1168 0.647199 17.2454 0.588533 17.3869C0.529867 17.5285 0.499779 17.6803 0.500001 17.8335V19.0002C0.500001 19.3096 0.622917 19.6063 0.84171 19.8251C1.0605 20.0439 1.35725 20.1668 1.66667 20.1668H20.3333C20.6428 20.1668 20.9395 20.0439 21.1583 19.8251C21.3771 19.6063 21.5 19.3096 21.5 19.0002V17.8335C21.5002 17.6803 21.4701 17.5285 21.4115 17.3869C21.3528 17.2454 21.2667 17.1168 21.1582 17.0087L19.1667 15.0172Z" fill="white"/>
</svg>
