<svg width="6" height="23" viewBox="0 0 6 23" fill="none" xmlns="http://www.w3.org/2000/svg">
<path fill-rule="evenodd" clip-rule="evenodd" d="M2.99984 5.83329C4.55817 5.83329 5.83317 4.55829 5.83317 2.99996C5.83317 1.44163 4.55817 0.166626 2.99984 0.166626C1.4415 0.166626 0.166504 1.44163 0.166504 2.99996C0.166504 4.55829 1.4415 5.83329 2.99984 5.83329ZM2.99984 8.66663C1.4415 8.66663 0.166504 9.94162 0.166504 11.5C0.166504 13.0583 1.4415 14.3333 2.99984 14.3333C4.55817 14.3333 5.83317 13.0583 5.83317 11.5C5.83317 9.94162 4.55817 8.66663 2.99984 8.66663ZM0.166504 20C0.166504 18.4416 1.4415 17.1666 2.99984 17.1666C4.55817 17.1666 5.83317 18.4416 5.83317 20C5.83317 21.5583 4.55817 22.8333 2.99984 22.8333C1.4415 22.8333 0.166504 21.5583 0.166504 20Z" fill="#B5B5B5"/>
</svg>
