<svg width="28" height="28" viewBox="0 0 28 28" fill="none" xmlns="http://www.w3.org/2000/svg">
<path d="M14 25.6673C14.7225 25.6682 15.4274 25.444 16.0166 25.0258C16.6058 24.6077 17.0501 24.0163 17.2877 23.334H10.7123C10.9499 24.0163 11.3942 24.6077 11.9834 25.0258C12.5726 25.444 13.2775 25.6682 14 25.6673ZM22.1667 17.0177V11.6673C22.1667 7.91415 19.6175 4.75248 16.1642 3.80165C15.8223 2.94065 14.987 2.33398 14 2.33398C13.013 2.33398 12.1777 2.94065 11.8358 3.80165C8.3825 4.75365 5.83333 7.91415 5.83333 11.6673V17.0177L3.84183 19.0091C3.73328 19.1173 3.6472 19.2459 3.58853 19.3874C3.52987 19.529 3.49978 19.6807 3.5 19.834V21.0007C3.5 21.3101 3.62292 21.6068 3.84171 21.8256C4.0605 22.0444 4.35725 22.1673 4.66667 22.1673H23.3333C23.6428 22.1673 23.9395 22.0444 24.1583 21.8256C24.3771 21.6068 24.5 21.3101 24.5 21.0007V19.834C24.5002 19.6807 24.4701 19.529 24.4115 19.3874C24.3528 19.2459 24.2667 19.1173 24.1582 19.0091L22.1667 17.0177Z" fill="#0070C9"/>
</svg>
