<svg width="20" height="20" viewBox="0 0 20 20" fill="none" xmlns="http://www.w3.org/2000/svg">
<path fill-rule="evenodd" clip-rule="evenodd" d="M4.99992 8.3335C4.08325 8.3335 3.33325 9.0835 3.33325 10.0002C3.33325 10.9168 4.08325 11.6668 4.99992 11.6668C5.91659 11.6668 6.66659 10.9168 6.66659 10.0002C6.66659 9.0835 5.91659 8.3335 4.99992 8.3335ZM14.9999 8.3335C14.0833 8.3335 13.3333 9.0835 13.3333 10.0002C13.3333 10.9168 14.0833 11.6668 14.9999 11.6668C15.9166 11.6668 16.6666 10.9168 16.6666 10.0002C16.6666 9.0835 15.9166 8.3335 14.9999 8.3335ZM8.33325 10.0002C8.33325 9.0835 9.08325 8.3335 9.99992 8.3335C10.9166 8.3335 11.6666 9.0835 11.6666 10.0002C11.6666 10.9168 10.9166 11.6668 9.99992 11.6668C9.08325 11.6668 8.33325 10.9168 8.33325 10.0002Z" fill="black" fill-opacity="0.54"/>
</svg>
