<svg width="18" height="15" viewBox="0 0 18 15" fill="none" xmlns="http://www.w3.org/2000/svg">
<path d="M4.33273 8.61539V13.9231C4.33273 14.5154 4.82027 15 5.41614 15C6.01202 15 6.49955 14.5154 6.49955 13.9231V2.15385H8.66637V13.9231C8.66637 14.5154 9.1539 15 9.74977 15C10.3456 15 10.8332 14.5154 10.8332 13.9231V2.15385H11.9166C12.5125 2.15385 13 1.66923 13 1.07692C13 0.484615 12.5125 0 11.9166 0H4.51691C2.25259 0 0.23745 1.64769 0.0207683 3.88769C-0.228416 6.45077 1.79756 8.61539 4.33273 8.61539Z" fill="#6A7174"/>
<path d="M16.5 6C15.67 6 15 6.67 15 7.5C15 8.33 15.67 9 16.5 9C17.33 9 18 8.33 18 7.5C18 6.67 17.33 6 16.5 6Z" fill="#6A7174"/>
<path d="M16.5 0C15.67 0 15 0.67 15 1.5C15 2.33 15.67 3 16.5 3C17.33 3 18 2.33 18 1.5C18 0.67 17.33 0 16.5 0Z" fill="#6A7174"/>
<path d="M16.5 12C15.67 12 15 12.68 15 13.5C15 14.32 15.68 15 16.5 15C17.32 15 18 14.32 18 13.5C18 12.68 17.33 12 16.5 12Z" fill="#6A7174"/>
</svg>
