<svg width="117" height="117" viewBox="0 0 117 117" fill="none" xmlns="http://www.w3.org/2000/svg">
<path fill-rule="evenodd" clip-rule="evenodd" d="M30.6963 32.3422C30.6948 31.8284 30.8016 31.3222 31.007 30.8695C31.2123 30.4168 31.5099 30.0319 31.8726 29.7497C32.2353 29.4675 32.6517 29.2969 33.0841 29.2533C33.5166 29.2097 33.9514 29.2946 34.3492 29.5001L84.7378 55.6725C86.8252 56.7599 86.8252 60.2446 84.7378 61.3321L34.3492 87.4921C33.9522 87.6972 33.5184 87.7821 33.0868 87.7391C32.6552 87.6962 32.2394 87.5266 31.8769 87.2458C31.5145 86.9651 31.2168 86.5819 31.0107 86.1309C30.8046 85.6798 30.6965 85.1751 30.6963 84.6623V32.3422Z" fill="white"/>
</svg>
