<svg width="57" height="59" viewBox="0 0 57 59" fill="none" xmlns="http://www.w3.org/2000/svg">
<path fill-rule="evenodd" clip-rule="evenodd" d="M0.696305 3.34225C0.694791 2.82838 0.801566 2.32219 1.00696 1.8695C1.21235 1.41682 1.50986 1.03195 1.87257 0.74974C2.23527 0.467536 2.6517 0.296912 3.08415 0.253323C3.51659 0.209733 3.95139 0.294555 4.34917 0.500106L54.7378 26.6725C56.8252 27.7599 56.8252 31.2446 54.7378 32.3321L4.34917 58.4921C3.9522 58.6972 3.51836 58.7821 3.08676 58.7391C2.65516 58.6962 2.23939 58.5266 1.87695 58.2458C1.51451 57.9651 1.2168 57.5819 1.01068 57.1309C0.804568 56.6798 0.696528 56.1751 0.696305 55.6623V3.34225Z" fill="white"/>
</svg>
