<svg width="55" height="55" viewBox="0 0 55 55" fill="none" xmlns="http://www.w3.org/2000/svg">
<path fill-rule="evenodd" clip-rule="evenodd" d="M25.1629 12.3393L28.3307 9.17152C30.8808 6.61746 35.3593 4.84745 39.8061 4.20992C41.7776 3.90278 43.7826 3.87612 45.7616 4.13073C47.5158 4.39207 48.5889 4.90684 49.0878 5.40974C49.5907 5.90867 50.1055 6.98176 50.3668 8.73594C50.6202 10.4268 50.6004 12.4977 50.2876 14.6914C49.6541 19.1383 47.8801 23.6168 45.326 26.1669L27.7209 43.776L23.183 39.2381C22.9992 39.054 22.7809 38.9079 22.5406 38.8082C22.3003 38.7085 22.0428 38.657 21.7826 38.6569C21.5225 38.6567 21.2648 38.7077 21.0244 38.8071C20.784 38.9065 20.5655 39.0523 20.3814 39.2361C20.0097 39.6073 19.8006 40.1111 19.8002 40.6364C19.8 40.8966 19.8511 41.1542 19.9505 41.3946C20.0499 41.6351 20.1956 41.8535 20.3795 42.0376L26.3191 47.9773C26.503 48.1617 26.7215 48.3079 26.9621 48.4078C27.2026 48.5076 27.4605 48.5589 27.7209 48.5589C27.9813 48.5589 28.2392 48.5076 28.4797 48.4078C28.7202 48.3079 28.9387 48.1617 29.1226 47.9773L31.2886 45.8073L35.9216 53.5328C36.0761 53.7915 36.2876 54.0115 36.5399 54.1761C36.7923 54.3407 37.0789 54.4455 37.378 54.4825C37.677 54.5196 37.9805 54.4879 38.2654 54.3899C38.5503 54.2918 38.8091 54.1301 39.0221 53.9169L46.9416 45.9974C47.1591 45.7796 47.3228 45.5141 47.4197 45.2219C47.5166 44.9298 47.5441 44.6191 47.4999 44.3145L45.6586 31.4373L48.1295 28.9704C51.5151 25.5808 53.5069 20.1599 54.2078 15.2498C54.5642 12.767 54.6038 10.3001 54.283 8.14594C53.9662 6.05518 53.2693 3.98818 51.8913 2.60622C50.5094 1.22822 48.4424 0.527336 46.3476 0.214514C43.9892 -0.0959569 41.5987 -0.0692912 39.2478 0.29371C34.3337 0.98667 28.9088 2.97844 25.5272 6.36404L23.0602 8.83494L10.183 6.99364C9.87844 6.94949 9.56773 6.97697 9.2756 7.07389C8.98347 7.17081 8.71795 7.3345 8.50014 7.55197L0.5806 15.4715C0.36744 15.6845 0.205693 15.9432 0.107681 16.2282C0.00966888 16.5131 -0.0220228 16.8166 0.0150202 17.1156C0.0520631 17.4146 0.156863 17.7013 0.321438 17.9536C0.486012 18.206 0.706019 18.4175 0.964698 18.572L8.68625 23.2049L6.52026 25.3709C6.33588 25.5549 6.18959 25.7733 6.08978 26.0139C5.98997 26.2544 5.93859 26.5123 5.93859 26.7727C5.93859 27.0331 5.98997 27.291 6.08978 27.5315C6.18959 27.7721 6.33588 27.9905 6.52026 28.1745L12.4599 34.1141C12.644 34.2982 12.8625 34.4442 13.103 34.5438C13.3436 34.6435 13.6013 34.6947 13.8617 34.6947C14.122 34.6947 14.3798 34.6435 14.6203 34.5438C14.8608 34.4442 15.0794 34.2982 15.2634 34.1141C15.4475 33.93 15.5935 33.7115 15.6932 33.471C15.7928 33.2305 15.8441 32.9727 15.8441 32.7124C15.8441 32.452 15.7928 32.1942 15.6932 31.9537C15.5935 31.7132 15.4475 31.4947 15.2634 31.3106L10.7216 26.7767L13.2835 24.2186L25.1629 12.3393ZM38.0123 49.3236L34.1713 42.9207L42.1582 34.9378L43.4412 43.8948L38.0163 49.3196L38.0123 49.3236ZM11.5769 20.3222L19.5598 12.3393L10.6028 11.0564L5.1779 16.4813L11.5769 20.3222ZM7.33993 38.0779C7.52401 37.894 7.67009 37.6758 7.76981 37.4355C7.86953 37.1952 7.92095 36.9376 7.92114 36.6775C7.92132 36.4173 7.87027 36.1597 7.77088 35.9193C7.6715 35.6789 7.52573 35.4604 7.34191 35.2763C7.15809 35.0922 6.93981 34.9462 6.69954 34.8464C6.45926 34.7467 6.2017 34.6953 5.94155 34.6951C5.6814 34.6949 5.42377 34.746 5.18335 34.8454C4.94294 34.9447 4.72445 35.0905 4.54037 35.2743L0.5806 39.2341C0.209356 39.6059 0.00100119 40.1099 0.00137249 40.6353C0.00174379 41.1607 0.21081 41.6644 0.58258 42.0356C0.95435 42.4069 1.45837 42.6152 1.98376 42.6149C2.50915 42.6145 3.01287 42.4054 3.38412 42.0337L7.34389 38.0739L7.33993 38.0779ZM13.2796 44.0175C13.4687 43.8349 13.6195 43.6164 13.7233 43.3748C13.827 43.1333 13.8817 42.8735 13.8839 42.6106C13.8862 42.3477 13.8361 42.087 13.7366 41.8437C13.637 41.6004 13.49 41.3793 13.3041 41.1934C13.1182 41.0075 12.8972 40.8605 12.6539 40.761C12.4105 40.6614 12.1498 40.6113 11.8869 40.6136C11.624 40.6159 11.3642 40.6705 11.1227 40.7743C10.8811 40.878 10.6627 41.0289 10.48 41.218L2.56049 49.1375C2.18924 49.5093 1.98089 50.0133 1.98126 50.5387C1.98163 51.0641 2.1907 51.5678 2.56247 51.939C2.93424 52.3103 3.43826 52.5186 3.96365 52.5183C4.48904 52.5179 4.99276 52.3088 5.364 51.9371L13.2835 44.0175H13.2796ZM19.2192 49.9572C19.4033 49.7733 19.5494 49.5551 19.6491 49.3148C19.7488 49.0745 19.8003 48.817 19.8005 48.5568C19.8006 48.2967 19.7496 48.039 19.6502 47.7986C19.5508 47.5582 19.405 47.3397 19.2212 47.1556C19.0374 46.9715 18.8191 46.8255 18.5789 46.7257C18.3386 46.626 18.081 46.5746 17.8209 46.5744C17.5607 46.5742 17.3031 46.6253 17.0627 46.7247C16.8223 46.8241 16.6038 46.9698 16.4197 47.1536L12.4599 51.1134C12.0887 51.4852 11.8803 51.9892 11.8807 52.5146C11.8811 53.04 12.0901 53.5437 12.4619 53.915C12.8337 54.2862 13.3377 54.4946 13.8631 54.4942C14.3885 54.4938 14.8922 54.2847 15.2634 53.913L19.2232 49.9532L19.2192 49.9572ZM31.7836 18.6591C31.7836 18.1781 31.8783 17.7018 32.0624 17.2574C32.2465 16.8131 32.5163 16.4093 32.8564 16.0691C33.1965 15.729 33.6003 15.4592 34.0447 15.2752C34.4891 15.0911 34.9654 14.9963 35.4464 14.9963C35.9274 14.9963 36.4037 15.0911 36.8481 15.2752C37.2925 15.4592 37.6963 15.729 38.0364 16.0691C38.3765 16.4093 38.6463 16.8131 38.8304 17.2574C39.0144 17.7018 39.1092 18.1781 39.1092 18.6591C39.1092 19.6306 38.7233 20.5622 38.0364 21.2491C37.3495 21.936 36.4178 22.3219 35.4464 22.3219C34.475 22.3219 33.5433 21.936 32.8564 21.2491C32.1695 20.5622 31.7836 19.6306 31.7836 18.6591ZM35.4464 11.6305C33.5823 11.6305 31.7945 12.371 30.4764 13.6892C29.1583 15.0073 28.4178 16.795 28.4178 18.6591C28.4178 20.5232 29.1583 22.311 30.4764 23.6291C31.7945 24.9472 33.5823 25.6877 35.4464 25.6877C37.3105 25.6877 39.0982 24.9472 40.4164 23.6291C41.7345 22.311 42.475 20.5232 42.475 18.6591C42.475 16.795 41.7345 15.0073 40.4164 13.6892C39.0982 12.371 37.3105 11.6305 35.4464 11.6305Z" fill="white"/>
</svg>
