<svg width="26" height="26" viewBox="0 0 26 26" fill="none" xmlns="http://www.w3.org/2000/svg">
<path fill-rule="evenodd" clip-rule="evenodd" d="M17.3596 8.44604L9.2075 12.5226L8.72217 11.553L16.8743 7.47754L17.3596 8.44604ZM16.8743 18.521L8.72217 14.4455L9.20858 13.476L17.3607 17.5525L16.8753 18.521H16.8743Z" fill="#999999"/>
<path fill-rule="evenodd" clip-rule="evenodd" d="M18.9585 9.74967C19.6768 9.74967 20.3657 9.46433 20.8736 8.95642C21.3815 8.44851 21.6668 7.75964 21.6668 7.04134C21.6668 6.32305 21.3815 5.63417 20.8736 5.12626C20.3657 4.61835 19.6768 4.33301 18.9585 4.33301C18.2402 4.33301 17.5513 4.61835 17.0434 5.12626C16.5355 5.63417 16.2502 6.32305 16.2502 7.04134C16.2502 7.75964 16.5355 8.44851 17.0434 8.95642C17.5513 9.46433 18.2402 9.74967 18.9585 9.74967ZM18.9585 21.6663C19.6768 21.6663 20.3657 21.381 20.8736 20.8731C21.3815 20.3652 21.6668 19.6763 21.6668 18.958C21.6668 18.2397 21.3815 17.5508 20.8736 17.0429C20.3657 16.535 19.6768 16.2497 18.9585 16.2497C18.2402 16.2497 17.5513 16.535 17.0434 17.0429C16.5355 17.5508 16.2502 18.2397 16.2502 18.958C16.2502 19.6763 16.5355 20.3652 17.0434 20.8731C17.5513 21.381 18.2402 21.6663 18.9585 21.6663ZM7.04183 15.708C7.76012 15.708 8.449 15.4227 8.95691 14.9148C9.46482 14.4068 9.75016 13.718 9.75016 12.9997C9.75016 12.2814 9.46482 11.5925 8.95691 11.0846C8.449 10.5767 7.76012 10.2913 7.04183 10.2913C6.32353 10.2913 5.63466 10.5767 5.12675 11.0846C4.61884 11.5925 4.3335 12.2814 4.3335 12.9997C4.3335 13.718 4.61884 14.4068 5.12675 14.9148C5.63466 15.4227 6.32353 15.708 7.04183 15.708Z" fill="#999999"/>
</svg>
