<svg width="25" height="24" viewBox="0 0 25 24" fill="none" xmlns="http://www.w3.org/2000/svg">
<path d="M22.2421 8.27559L16.2913 7.41075L13.6311 2.01778C13.5585 1.87013 13.4389 1.75059 13.2913 1.67794C12.921 1.49513 12.471 1.64747 12.2858 2.01778L9.62567 7.41075L3.67489 8.27559C3.51082 8.29903 3.36082 8.37638 3.24598 8.49356C3.10714 8.63627 3.03063 8.82825 3.03327 9.02733C3.03591 9.22642 3.11747 9.41631 3.26004 9.55528L7.56551 13.7529L6.54832 19.6803C6.52447 19.8182 6.53973 19.96 6.59237 20.0896C6.64501 20.2193 6.73292 20.3316 6.84614 20.4138C6.95936 20.496 7.09335 20.5449 7.23293 20.5549C7.37251 20.5648 7.51208 20.5355 7.63582 20.4701L12.9585 17.6717L18.2811 20.4701C18.4264 20.5475 18.5952 20.5732 18.7569 20.5451C19.1647 20.4748 19.4389 20.0881 19.3686 19.6803L18.3514 13.7529L22.6569 9.55528C22.7741 9.44044 22.8514 9.29044 22.8749 9.12638C22.9382 8.71622 22.6522 8.33653 22.2421 8.27559Z" fill="white"/>
</svg>
