<svg width="18" height="15" viewBox="0 0 18 15" fill="none" xmlns="http://www.w3.org/2000/svg">
<path fill-rule="evenodd" clip-rule="evenodd" d="M0.0741577 13.58L4.64416 1.93C4.86416 1.37 5.41416 1 6.01416 1C6.61416 1 7.15416 1.37 7.38416 1.93L11.9542 13.58C12.2242 14.26 11.7142 15 10.9842 15C10.5442 15 10.1542 14.73 10.0042 14.32L9.13416 12H2.88416L2.02416 14.32C1.86416 14.73 1.47416 15 1.04416 15C0.304158 15 -0.195842 14.26 0.0741577 13.58ZM6.01416 3.67001L3.63416 10H8.39416L6.01416 3.67001Z" fill="black" fill-opacity="0.54"/>
<path d="M15.5137 6C14.6837 6 14.0137 6.67 14.0137 7.5C14.0137 8.33 14.6837 9 15.5137 9C16.3437 9 17.0137 8.33 17.0137 7.5C17.0137 6.67 16.3437 6 15.5137 6Z" fill="#6A7174"/>
<path d="M15.5137 0C14.6837 0 14.0137 0.67 14.0137 1.5C14.0137 2.33 14.6837 3 15.5137 3C16.3437 3 17.0137 2.33 17.0137 1.5C17.0137 0.67 16.3437 0 15.5137 0Z" fill="#6A7174"/>
<path d="M15.5137 12C14.6837 12 14.0137 12.68 14.0137 13.5C14.0137 14.32 14.6937 15 15.5137 15C16.3337 15 17.0137 14.32 17.0137 13.5C17.0137 12.68 16.3437 12 15.5137 12Z" fill="#6A7174"/>
</svg>
