<svg width="26" height="26" viewBox="0 0 26 26" fill="none" xmlns="http://www.w3.org/2000/svg">
<path d="M10.905 21.8089C13.3245 21.8084 15.6743 20.9984 17.5802 19.508L23.5725 25.5L25.5 23.5726L19.5077 17.5807C20.999 15.6747 21.8094 13.3244 21.81 10.9044C21.81 4.892 16.9178 0 10.905 0C4.89226 0 0 4.892 0 10.9044C0 16.9169 4.89226 21.8089 10.905 21.8089ZM10.905 2.72611C15.4156 2.72611 19.0838 6.39408 19.0838 10.9044C19.0838 15.4148 15.4156 19.0827 10.905 19.0827C6.39442 19.0827 2.72625 15.4148 2.72625 10.9044C2.72625 6.39408 6.39442 2.72611 10.905 2.72611Z" fill="#0070C9"/>
</svg>
