<svg width="127" height="127" viewBox="0 0 127 127" fill="none" xmlns="http://www.w3.org/2000/svg">
<g opacity="0.5">
<path d="M112.626 43.7927L81.1359 39.2163L67.0593 10.6785C66.6748 9.89714 66.0423 9.26462 65.2609 8.88015C63.3014 7.91277 60.9201 8.71892 59.9403 10.6785L45.8637 39.2163L14.3741 43.7927C13.5059 43.9168 12.7122 44.326 12.1045 44.9462C11.3698 45.7013 10.9649 46.7172 10.9789 47.7707C10.9928 48.8242 11.4244 49.829 12.1789 50.5644L34.962 72.777L29.5794 104.143C29.4531 104.872 29.5339 105.623 29.8124 106.309C30.091 106.995 30.5562 107.589 31.1553 108.024C31.7544 108.459 32.4635 108.718 33.2021 108.771C33.9407 108.823 34.6793 108.668 35.3341 108.322L63.4998 93.5137L91.6655 108.322C92.4345 108.731 93.3275 108.868 94.1832 108.719C96.3412 108.347 97.7923 106.301 97.4202 104.143L92.0376 72.777L114.821 50.5644C115.441 49.9567 115.85 49.163 115.974 48.2948C116.309 46.1244 114.796 44.1152 112.626 43.7927ZM82.4506 69.6516L86.9278 95.7338L63.4998 83.4306L40.0718 95.7462L44.549 69.664L25.5982 51.1845L51.792 47.377L63.4998 23.6513L75.2076 47.377L101.401 51.1845L82.4506 69.6516Z" fill="#B5B5B5"/>
</g>
</svg>
