<svg width="30" height="30" viewBox="0 0 30 30" fill="none" xmlns="http://www.w3.org/2000/svg">
<path fill-rule="evenodd" clip-rule="evenodd" d="M15 2.5C21.9 2.5 27.5 8.1 27.5 15C27.5 21.9 21.9 27.5 15 27.5C8.1 27.5 2.5 21.9 2.5 15C2.5 8.1 8.1 2.5 15 2.5ZM15 25C20.525 25 25 20.525 25 15C25 9.475 20.525 5 15 5C9.475 5 5 9.475 5 15C5 20.525 9.475 25 15 25ZM15 21.25C11.5482 21.25 8.75 18.4518 8.75 15C8.75 11.5482 11.5482 8.75 15 8.75C18.4518 8.75 21.25 11.5482 21.25 15C21.25 18.4518 18.4518 21.25 15 21.25Z" fill="#0070C9"/>
</svg>
