<svg width="25" height="24" viewBox="0 0 25 24" fill="none" xmlns="http://www.w3.org/2000/svg">
<path d="M22.4999 5.96017C21.7827 6.26954 21.0022 6.4922 20.1983 6.57892C21.033 6.08306 21.658 5.2997 21.9562 4.37579C21.1729 4.8417 20.3149 5.16841 19.4202 5.34142C19.0463 4.94163 18.594 4.62315 18.0915 4.40581C17.5891 4.18847 17.0473 4.07693 16.4999 4.07813C14.2851 4.07813 12.5038 5.87345 12.5038 8.07657C12.5038 8.38595 12.5413 8.69532 12.6022 8.99298C9.28584 8.81954 6.32803 7.23517 4.36162 4.80938C4.00332 5.42137 3.81556 6.1182 3.81787 6.82735C3.81787 8.21485 4.52334 9.43829 5.59912 10.1578C4.96515 10.1329 4.34602 9.9586 3.79209 9.64923V9.69845C3.79209 11.6414 5.16553 13.2516 6.996 13.6219C6.65231 13.7112 6.29875 13.7568 5.94365 13.7578C5.6835 13.7578 5.4374 13.732 5.18896 13.6969C5.69521 15.2813 7.16943 16.432 8.9249 16.4695C7.55146 17.5453 5.83115 18.1781 3.96318 18.1781C3.62803 18.1781 3.31865 18.1664 2.99756 18.1289C4.76943 19.2656 6.87178 19.9219 9.13584 19.9219C16.4858 19.9219 20.5077 13.8328 20.5077 8.54767C20.5077 8.37423 20.5077 8.20079 20.496 8.02735C21.2741 7.45782 21.9562 6.75235 22.4999 5.96017Z" fill="#67CAE0"/>
</svg>
