<svg width="24" height="24" viewBox="0 0 24 24" fill="none" xmlns="http://www.w3.org/2000/svg">
<g opacity="0.4">
<path d="M5.57164 10.6C7.42164 8.99 9.82164 8 12.4716 8C16.6316 8 20.2116 10.42 21.9116 13.93C22.2316 14.6 21.8716 15.4 21.1616 15.64C20.5716 15.84 19.9316 15.56 19.6616 15C18.3616 12.34 15.6316 10.5 12.4716 10.5C10.5216 10.5 8.74164 11.22 7.35164 12.38L9.26164 14.29C9.89164 14.92 9.45164 16 8.56164 16H2.97164C2.42164 16 1.97164 15.55 1.97164 15V9.41C1.97164 8.52 3.05164 8.07 3.68164 8.7L5.57164 10.6Z" fill="black" fill-opacity="0.54"/>
</g>
</svg>
