<svg width="23" height="7" viewBox="0 0 23 7" fill="none" xmlns="http://www.w3.org/2000/svg">
<path d="M16.6067 0.333265C16.0837 0.142702 15.5309 0.0470762 14.9743 0.050891C13.1743 0.050891 11.903 0.95764 11.894 2.25927C11.8828 3.21552 12.7974 3.75439 13.4893 4.07389C14.1992 4.40239 14.4365 4.60939 14.4343 4.90302C14.4298 5.34964 13.8673 5.55214 13.3442 5.55214C12.6253 5.55214 12.2327 5.45201 11.6285 5.20114L11.4047 5.09652L11.1493 6.59502C11.5869 6.77727 12.3755 6.93364 13.19 6.94714C15.1037 6.94714 16.3547 6.04602 16.3693 4.66114C16.385 3.89727 15.89 3.32014 14.8483 2.84314C14.2149 2.53377 13.8223 2.32677 13.8223 2.01289C13.8223 1.73502 14.1587 1.43802 14.8618 1.43802C15.3298 1.42669 15.7948 1.51449 16.2264 1.69564L16.3952 1.77102L16.6505 0.323141L16.6067 0.333265ZM21.2777 0.172391H19.8714C19.4338 0.172391 19.1042 0.292766 18.9129 0.727016L16.2084 6.85377H18.122L18.5045 5.84914L20.84 5.85139C20.8952 6.08651 21.0639 6.85377 21.0639 6.85377H22.7514L21.2777 0.172391ZM9.30542 0.116141H11.129L9.9883 6.80089H8.16692L9.30542 0.113891V0.116141ZM4.67605 3.80051L4.86505 4.72864L6.64705 0.172391H8.57867L5.7088 6.84477H3.78167L2.20667 1.19502C2.18116 1.10186 2.12126 1.02185 2.03905 0.971141C1.47137 0.677895 0.869885 0.455359 0.248047 0.308515L0.272797 0.16789H3.20792C3.60617 0.18364 3.9268 0.308515 4.03367 0.733765L4.67492 3.80389V3.80051H4.67605ZM19.0277 4.48226L19.7544 2.61251C19.7454 2.63277 19.9041 2.22664 19.9963 1.97577L20.1212 2.55289L20.5431 4.48114H19.0266V4.48226H19.0277Z" fill="black"/>
</svg>
