<svg width="39" height="13" viewBox="0 0 39 13" fill="none" xmlns="http://www.w3.org/2000/svg">
<mask id="mask0" mask-type="alpha" maskUnits="userSpaceOnUse" x="0" y="0" width="39" height="13">
<path fill-rule="evenodd" clip-rule="evenodd" d="M20.1509 4.0628C20.1287 5.83317 21.7129 6.82117 22.9063 7.40853C24.1324 8.01126 24.5443 8.39771 24.5396 8.93662C24.5302 9.76153 23.5615 10.1255 22.6547 10.1397C21.0729 10.1645 20.1533 9.70835 19.422 9.36326L18.8522 12.0566C19.5858 12.3982 20.9442 12.696 22.3529 12.709C25.6593 12.709 27.8226 11.0603 27.8343 8.50408C27.8472 5.25998 23.3918 5.08035 23.4223 3.63026C23.4328 3.19062 23.8481 2.72144 24.7584 2.60208C25.2088 2.5418 26.4526 2.49571 27.8624 3.15162L28.4158 0.545712C27.6577 0.266803 26.683 -0.00028801 25.4698 -0.00028801C22.3576 -0.00028801 20.1685 1.6708 20.1509 4.0628ZM33.7334 0.224252C33.1297 0.224252 32.6207 0.579979 32.3938 1.12598L27.6705 12.5175L30.9746 12.5175L31.6321 10.6822H35.6698L36.0512 12.5175H38.9633L36.4221 0.224252H33.7334ZM34.1956 3.54516L35.1492 8.16135H32.5377L34.1956 3.54516ZM16.1448 0.224252L13.5404 12.5175H16.6889L19.2921 0.224252H16.1448ZM11.4871 0.224252L8.20989 8.59152L6.88428 1.47698C6.72867 0.682797 6.11442 0.224252 5.43231 0.224252H0.07488L0 0.581161C1.0998 0.822252 2.34936 1.21107 3.10635 1.62707C3.56967 1.88116 3.70188 2.10334 3.85398 2.70725L6.3648 12.5175H9.69228L14.7935 0.224252H11.4871Z" fill="white"/>
</mask>
<g mask="url(#mask0)">
<path d="M-4.08008 1.5176L34.3104 -12.7635L43.044 11.1916L4.65397 25.4727" fill="url(#paint0_linear)"/>
</g>
<defs>
<linearGradient id="paint0_linear" x1="-3.99794" y1="-1.00308" x2="26.1249" y2="-18.0236" gradientUnits="userSpaceOnUse">
<stop stop-color="#222357"/>
<stop offset="1" stop-color="#254AA5"/>
</linearGradient>
</defs>
</svg>
