<svg width="42" height="42" viewBox="0 0 42 42" fill="none" xmlns="http://www.w3.org/2000/svg">
<path d="M28.9428 16.0761C28.1293 15.7797 27.2694 15.631 26.4036 15.6369C23.6036 15.6369 21.6261 17.0474 21.6121 19.0721C21.5946 20.5596 23.0173 21.3979 24.0936 21.8949C25.1978 22.4059 25.5671 22.7279 25.5636 23.1846C25.5566 23.8794 24.6816 24.1944 23.8678 24.1944C22.7496 24.1944 22.1388 24.0386 21.1991 23.6484L20.8508 23.4856L20.4536 25.8166C21.1343 26.1001 22.3611 26.3434 23.6281 26.3644C26.6048 26.3644 28.5508 24.9626 28.5736 22.8084C28.5981 21.6201 27.8281 20.7224 26.2076 19.9804C25.2223 19.4991 24.6116 19.1771 24.6116 18.6889C24.6116 18.2566 25.1348 17.7946 26.2286 17.7946C26.9565 17.777 27.6799 17.9136 28.3513 18.1954L28.6138 18.3126L29.0111 16.0604L28.9428 16.0761ZM36.2088 15.8259H34.0213C33.3406 15.8259 32.8278 16.0131 32.5303 16.6886L28.3233 26.2191H31.3001L31.8951 24.6564L35.5281 24.6599C35.6138 25.0256 35.8763 26.2191 35.8763 26.2191H38.5013L36.2088 15.8259ZM17.5853 15.7384H20.4221L18.6476 26.1369H15.8143L17.5853 15.7349V15.7384ZM10.3841 21.4696L10.6781 22.9134L13.4501 15.8259H16.4548L11.9906 26.2051H8.99284L6.54284 17.4166C6.50316 17.2717 6.40997 17.1473 6.28209 17.0684C5.39905 16.6122 4.4634 16.2661 3.49609 16.0376L3.53459 15.8189H8.10034C8.71984 15.8434 9.21859 16.0376 9.38484 16.6991L10.3823 21.4749V21.4696H10.3841ZM32.7088 22.5301L33.8393 19.6216C33.8253 19.6531 34.0721 19.0214 34.2156 18.6311L34.4098 19.5289L35.0661 22.5284H32.7071V22.5301H32.7088Z" fill="black"/>
</svg>
