<svg width="140" height="124" viewBox="0 0 140 124" fill="none" xmlns="http://www.w3.org/2000/svg">
<path d="M70.898 43.957C63.0111 43.957 56.6172 50.3506 56.6172 58.2379C56.6172 66.1248 63.0108 72.5187 70.898 72.5187C78.7849 72.5187 85.1788 66.1251 85.1788 58.2379C85.1788 50.3506 78.7852 43.957 70.898 43.957ZM70.898 65.718C66.7666 65.718 63.4176 62.3689 63.4176 58.2375C63.4176 54.1062 66.7666 50.7571 70.898 50.7571C75.0294 50.7571 78.3785 54.1062 78.3785 58.2375C78.3785 62.3689 75.0294 65.718 70.898 65.718Z" fill="#0070C9"/>
<path d="M127.851 11.3152L35.0266 0.774947C31.424 0.262756 27.7739 1.31447 24.9962 3.66521C22.2188 5.81876 20.4385 9.01101 20.066 12.5056L18.366 26.4463H13.0954C5.61494 26.4463 0.0045944 33.0765 0.0045944 40.557V110.09C-0.183816 117.224 5.44605 123.159 12.5796 123.348C12.7514 123.352 12.9236 123.353 13.0954 123.351H106.43C113.91 123.351 120.711 117.571 120.711 110.09V107.37C123.03 106.922 125.23 105.996 127.171 104.65C129.926 102.331 131.689 99.0467 132.101 95.4698L139.922 26.4463C140.719 18.9486 135.339 12.2039 127.851 11.3152ZM113.91 110.09C113.91 113.831 110.17 116.551 106.43 116.551H13.0954C9.7167 116.65 6.89737 113.991 6.79812 110.613C6.79292 110.439 6.79519 110.264 6.80496 110.09V97.5098L33.1564 78.1288C36.322 75.6984 40.7807 75.9144 43.697 78.6387L62.228 94.9595C65.0421 97.3223 68.5845 98.6432 72.2587 98.6998C75.1314 98.7349 77.9569 97.9699 80.4192 96.4896L113.911 77.1087V110.09H113.91ZM113.91 69.1183L76.8485 90.7094C73.6661 92.5948 69.6378 92.2535 66.8179 89.8594L48.117 73.3684C42.7573 68.7629 34.9234 68.4805 29.246 72.6883L6.80496 89.0091V40.557C6.80496 36.8167 9.35517 33.2467 13.0954 33.2467H106.43C110.426 33.4123 113.653 36.5662 113.91 40.557V69.1183ZM133.128 25.5284C133.126 25.5508 133.124 25.5736 133.121 25.596L125.131 94.6195C125.145 96.4092 124.328 98.1043 122.921 99.2097C122.241 99.8898 120.711 100.23 120.711 100.57V40.557C120.442 32.8119 114.177 26.6217 106.43 26.4463H25.1661L26.6961 13.1857C27.028 11.4685 27.9258 9.91238 29.2463 8.76532C30.7374 7.73443 32.5401 7.25381 34.3468 7.40512L127.002 18.1156C130.74 18.4706 133.483 21.7894 133.128 25.5284Z" fill="#0070C9"/>
</svg>
