<svg width="25" height="24" viewBox="0 0 25 24" fill="none" xmlns="http://www.w3.org/2000/svg">
<path d="M2.75401 22L4.10601 17.032C3.21515 15.5049 2.74711 13.768 2.75001 12C2.75001 6.477 7.22701 2 12.75 2C18.273 2 22.75 6.477 22.75 12C22.75 17.523 18.273 22 12.75 22C10.9828 22.0029 9.24667 21.5352 7.72001 20.645L2.75401 22ZM9.14101 7.308C9.01188 7.31602 8.88569 7.35003 8.77001 7.408C8.66153 7.46943 8.56251 7.54623 8.47601 7.636C8.35601 7.749 8.28801 7.847 8.21501 7.942C7.84542 8.423 7.64662 9.01342 7.65001 9.62C7.65201 10.11 7.78001 10.587 7.98001 11.033C8.38901 11.935 9.06201 12.89 9.95101 13.775C10.165 13.988 10.374 14.202 10.599 14.401C11.7024 15.3725 13.0173 16.073 14.439 16.447L15.008 16.534C15.193 16.544 15.378 16.53 15.564 16.521C15.8553 16.506 16.1396 16.4271 16.397 16.29C16.528 16.2225 16.6558 16.1491 16.78 16.07C16.78 16.07 16.823 16.042 16.905 15.98C17.04 15.88 17.123 15.809 17.235 15.692C17.318 15.606 17.39 15.505 17.445 15.39C17.523 15.227 17.601 14.916 17.633 14.657C17.657 14.459 17.65 14.351 17.647 14.284C17.643 14.177 17.554 14.066 17.457 14.019L16.875 13.758C16.875 13.758 16.005 13.379 15.474 13.137C15.418 13.1126 15.358 13.0987 15.297 13.096C15.2286 13.089 15.1595 13.0967 15.0943 13.1186C15.0291 13.1405 14.9693 13.1761 14.919 13.223V13.221C14.914 13.221 14.847 13.278 14.124 14.154C14.0825 14.2098 14.0254 14.2519 13.9598 14.2751C13.8943 14.2982 13.8233 14.3013 13.756 14.284C13.6909 14.2666 13.627 14.2445 13.565 14.218C13.441 14.166 13.398 14.146 13.313 14.109L13.308 14.107C12.7359 13.8572 12.2062 13.5198 11.738 13.107C11.612 12.997 11.495 12.877 11.375 12.761C10.9816 12.3842 10.6387 11.958 10.355 11.493L10.296 11.398C10.2536 11.3342 10.2194 11.2653 10.194 11.193C10.156 11.046 10.255 10.928 10.255 10.928C10.255 10.928 10.498 10.662 10.611 10.518C10.7051 10.3983 10.7929 10.2738 10.874 10.145C10.992 9.955 11.029 9.76 10.967 9.609C10.687 8.925 10.397 8.244 10.099 7.568C10.04 7.434 9.86501 7.338 9.70601 7.319C9.65201 7.313 9.59801 7.307 9.54401 7.303C9.40972 7.29633 9.27515 7.29766 9.14101 7.307V7.308Z" fill="#59D25D"/>
</svg>
